<svg width="60" height="60" viewBox="0 0 60 60" fill="none" xmlns="http://www.w3.org/2000/svg">
<circle cx="30" cy="30" r="28.5" stroke="white" stroke-opacity="0.75" stroke-width="3"/>
<path d="M30.3 9.30029C19.0341 9.30029 9.89996 18.4344 9.89996 29.7003C9.89996 40.9662 19.0341 50.1003 30.3 50.1003C41.5659 50.1003 50.7 40.9662 50.7 29.7003C50.7 18.4344 41.5659 9.30029 30.3 9.30029ZM37.4077 22.9003H34.4684C32.6392 22.9003 32 23.8659 32 25.8209V28.0003H37.3618L36.6342 33.1003H32V46.6153C31.4407 46.6697 30.8746 46.7003 30.3 46.7003C29.1355 46.7003 27.9982 46.5813 26.9 46.3586V33.1003H21.8V28.0003H26.9V25.2616C26.9 20.0766 29.4262 17.8003 33.7357 17.8003C35.7995 17.8003 36.8909 17.9533 37.4077 18.023V22.9003Z" fill="white" fill-opacity="0.75"/>
</svg>
