<svg width="60" height="60" viewBox="0 0 60 60" fill="none" xmlns="http://www.w3.org/2000/svg">
<circle cx="30" cy="30" r="28.5" stroke="white" stroke-opacity="0.75" stroke-width="3"/>
<path d="M30.5 9C19.1966 9 10 18.1966 10 29.5C10 40.8034 19.1966 50 30.5 50C41.8034 50 51 40.8034 51 29.5C51 18.1966 41.8034 9 30.5 9ZM25.2426 15.3077H35.7544C40.6822 15.3077 44.6923 19.3163 44.6923 24.2426V34.7544C44.6923 39.6822 40.6837 43.6923 35.7574 43.6923H25.2456C20.3178 43.6923 16.3077 39.6837 16.3077 34.7574V24.2456C16.3077 19.3178 20.3163 15.3077 25.2426 15.3077ZM25.2426 18.4615C22.0556 18.4615 19.4615 21.0571 19.4615 24.2456V34.7574C19.4615 37.9444 22.0571 40.5385 25.2456 40.5385H35.7574C38.9444 40.5385 41.5385 37.9429 41.5385 34.7544V24.2426C41.5385 21.0556 38.9429 18.4615 35.7544 18.4615H25.2426ZM37.861 21.0887C38.4413 21.0887 38.9113 21.5587 38.9113 22.139C38.9113 22.7193 38.4413 23.1923 37.861 23.1923C37.2807 23.1923 36.8077 22.7193 36.8077 22.139C36.8077 21.5587 37.2807 21.0887 37.861 21.0887ZM30.5 21.6154C34.8476 21.6154 38.3846 25.1524 38.3846 29.5C38.3846 33.8476 34.8476 37.3846 30.5 37.3846C26.1524 37.3846 22.6154 33.8476 22.6154 29.5C22.6154 25.1524 26.1524 21.6154 30.5 21.6154ZM30.5 24.7692C29.2453 24.7692 28.042 25.2676 27.1548 26.1548C26.2676 27.042 25.7692 28.2453 25.7692 29.5C25.7692 30.7547 26.2676 31.958 27.1548 32.8452C28.042 33.7324 29.2453 34.2308 30.5 34.2308C31.7547 34.2308 32.958 33.7324 33.8452 32.8452C34.7324 31.958 35.2308 30.7547 35.2308 29.5C35.2308 28.2453 34.7324 27.042 33.8452 26.1548C32.958 25.2676 31.7547 24.7692 30.5 24.7692Z" fill="white" fill-opacity="0.75"/>
</svg>
