<svg width="60" height="60" viewBox="0 0 60 60" fill="none" xmlns="http://www.w3.org/2000/svg">
<path d="M30 10C18.955 10 10 18.955 10 30C10 41.045 18.955 50 30 50C41.045 50 50 41.045 50 30C50 18.955 41.045 10 30 10ZM22.4933 19.005C23.8967 19.005 24.8317 19.94 24.8317 21.1867C24.8317 22.4333 23.8967 23.3683 22.3383 23.3683C20.935 23.37 20 22.4333 20 21.1867C20 19.94 20.935 19.005 22.4933 19.005ZM25 38.3333H20V25H25V38.3333ZM41.6667 38.3333H36.96V31.0467C36.96 29.0317 35.705 28.5667 35.235 28.5667C34.765 28.5667 33.195 28.8767 33.195 31.0467C33.195 31.3567 33.195 38.3333 33.195 38.3333H28.3333V25H33.1967V26.86C33.8233 25.775 35.0783 25 37.4317 25C39.785 25 41.6667 26.86 41.6667 31.0467V38.3333Z" fill="white" fill-opacity="0.75"/>
<circle cx="30" cy="30" r="28.5" stroke="white" stroke-opacity="0.75" stroke-width="3"/>
</svg>
