<svg width="60" height="60" viewBox="0 0 60 60" fill="none" xmlns="http://www.w3.org/2000/svg">
<circle cx="30" cy="30" r="28.5" stroke="white" stroke-opacity="0.75" stroke-width="3"/>
<path d="M30.5 11.5C20.5595 11.5 12.5 19.5595 12.5 29.5C12.5 32.8768 13.4485 36.0251 15.0664 38.7256L12.6611 47.5L21.623 45.1475C24.244 46.6376 27.2697 47.5 30.5 47.5C40.4405 47.5 48.5 39.4405 48.5 29.5C48.5 19.5595 40.4405 11.5 30.5 11.5ZM24.3389 21.1035C24.6314 21.1035 24.9319 21.1017 25.1914 21.1152C25.5124 21.1227 25.8618 21.1462 26.1963 21.8857C26.5938 22.7647 27.4593 24.9699 27.5703 25.1934C27.6813 25.4169 27.76 25.6802 27.6055 25.9727C27.4585 26.2727 27.382 26.4542 27.166 26.7197C26.9425 26.9777 26.6976 27.2982 26.4951 27.4932C26.2716 27.7167 26.0408 27.9617 26.2988 28.4072C26.5568 28.8527 27.4528 30.3132 28.7773 31.4922C30.4798 33.0132 31.9163 33.4806 32.3633 33.7041C32.8103 33.9276 33.0691 33.8928 33.3271 33.5928C33.5926 33.3003 34.4422 32.2966 34.7422 31.8496C35.0347 31.4026 35.3333 31.4799 35.7383 31.6269C36.1493 31.7739 38.3411 32.8536 38.7881 33.0771C39.2351 33.3006 39.5281 33.4113 39.6406 33.5928C39.7561 33.7803 39.7562 34.6729 39.3857 35.7139C39.0152 36.7534 37.1959 37.7586 36.3799 37.8291C35.5564 37.9056 34.7878 38.1992 31.0273 36.7187C26.4913 34.9322 23.6307 30.2863 23.4072 29.9863C23.1837 29.6938 21.5908 27.5709 21.5908 25.3809C21.5908 23.1834 22.743 22.1072 23.1465 21.6602C23.5575 21.2132 24.0389 21.1035 24.3389 21.1035Z" fill="white" fill-opacity="0.75"/>
</svg>
