<svg width="60" height="60" viewBox="0 0 60 60" fill="none" xmlns="http://www.w3.org/2000/svg">
<g clip-path="url(#clip0_275_90)">
<path fill-rule="evenodd" clip-rule="evenodd" d="M30.0062 9C41.3233 9 50.5123 18.1767 50.5123 29.5062C50.5123 40.8233 41.3356 50.0123 30.0062 50.0123C18.689 50.0123 9.5 40.8356 9.5 29.5062C9.5 18.189 18.6767 9 30.0062 9ZM41.2372 24.9178C41.2372 24.9178 41.0158 23.3309 40.3269 22.6421C39.4535 21.7318 38.4694 21.7195 38.0266 21.6703C34.8159 21.4365 30.0062 21.4365 30.0062 21.4365H29.9939C29.9939 21.4365 25.1718 21.4365 21.9734 21.6703C21.5306 21.7195 20.5465 21.7318 19.6731 22.6421C18.9842 23.3309 18.7628 24.9178 18.7628 24.9178C18.7628 24.9178 18.5291 26.7753 18.5291 28.6328V30.3672C18.5291 32.2247 18.7628 34.0822 18.7628 34.0822C18.7628 34.0822 18.9842 35.6691 19.6731 36.3579C20.5465 37.2682 21.6905 37.2436 22.2072 37.342C24.0401 37.5143 30.0062 37.5758 30.0062 37.5758C30.0062 37.5758 34.8282 37.5635 38.0389 37.342C38.4817 37.2928 39.4658 37.2805 40.3392 36.3702C41.0281 35.6814 41.2495 34.0945 41.2495 34.0945C41.2495 34.0945 41.4832 32.237 41.4832 30.3795V28.6451C41.4832 26.7876 41.2495 24.9301 41.2495 24.9301L41.2372 24.9178ZM27.6197 32.483V26.0372L33.8195 29.2724L27.6197 32.483Z" fill="white" fill-opacity="0.75"/>
</g>
<circle cx="30" cy="30" r="28.5" stroke="white" stroke-opacity="0.75" stroke-width="3"/>
<defs>
<clipPath id="clip0_275_90">
<rect width="41" height="41" fill="white" transform="translate(9.5 9)"/>
</clipPath>
</defs>
</svg>
